<svg width="155" height="155" viewBox="0 0 155 155" fill="none" xmlns="http://www.w3.org/2000/svg">
<circle cx="76.5" cy="91.5" r="40.5" fill="#F0F0F0"/>
<path d="M94 92L56.5 113.651L56.5 70.3494L94 92Z" fill="#FF007A"/>
<path d="M107 92L68 114.517L68 69.4833L107 92Z" fill="#FFE600"/>
<path d="M147 68.2221H146.388C145.783 45.0299 133.871 24.6118 115.956 12.2965C115.94 12.2828 115.935 12.2622 115.921 12.2485C115.855 12.1867 115.772 12.1627 115.699 12.113C104.477 4.47316 90.9359 0 76.366 0C61.7995 0 48.26 4.47144 37.0403 12.1079C36.9649 12.1576 36.8791 12.185 36.8105 12.2485C36.7951 12.2622 36.79 12.2828 36.7745 12.2982C18.8339 24.6307 6.91291 45.0882 6.34026 68.3198C2.77065 68.7982 0 71.8294 0 75.5276V116.971C0 121 3.27643 124.276 7.30553 124.276H25.848C26.7944 124.276 27.5625 123.51 27.5625 122.562V69.9366C27.5625 68.9902 26.7944 68.2221 25.848 68.2221H9.771C10.3642 46.621 21.2771 27.5642 37.7552 15.8044L44.3167 22.9264C44.651 23.2899 45.1122 23.4785 45.5786 23.4785C45.894 23.4785 46.2129 23.3911 46.4941 23.2128C55.4781 17.5257 65.8081 14.5202 76.366 14.5202C86.924 14.5202 97.2522 17.5257 106.236 23.2128C106.936 23.6534 107.853 23.5351 108.415 22.9247L114.975 15.8026C131.455 27.5625 142.368 46.6193 142.959 68.2204H128.458C127.51 68.2204 126.743 68.9885 126.743 69.9349V122.558C126.743 123.507 127.51 124.273 128.458 124.273H142.92C142.047 134.215 133.687 142.042 123.522 142.042H98.2638C97.4425 137.171 93.2077 133.446 88.107 133.446C82.4217 133.446 77.7959 138.07 77.7959 143.757C77.7959 149.444 82.42 154.069 88.107 154.069C93.2077 154.069 97.4442 150.342 98.2638 145.471H123.522C135.578 145.471 145.466 136.106 146.349 124.273H147.002C151.031 124.273 154.308 120.996 154.308 116.967V75.5276C154.306 71.5002 151.03 68.2221 147 68.2221ZM12.0016 114.517C12.0016 115.465 11.2335 116.232 10.2871 116.232C9.34065 116.232 8.57255 115.465 8.57255 114.517V109.374C8.57255 108.426 9.34065 107.659 10.2871 107.659C11.2335 107.659 12.0016 108.426 12.0016 109.374V114.517ZM10.2871 76.2666C11.2335 76.2666 12.0016 77.0347 12.0016 77.9811V102.516C12.0016 103.464 11.2335 104.23 10.2871 104.23C9.34065 104.23 8.57255 103.464 8.57255 102.516V77.9811C8.57255 77.0347 9.34065 76.2666 10.2871 76.2666ZM145.733 114.517C145.733 115.465 144.967 116.232 144.019 116.232C143.071 116.232 142.304 115.465 142.304 114.517V109.374C142.304 108.426 143.071 107.659 144.019 107.659C144.967 107.659 145.733 108.426 145.733 109.374V114.517ZM145.733 102.516C145.733 103.464 144.967 104.23 144.019 104.23C143.071 104.23 142.304 103.464 142.304 102.516V77.9811C142.304 77.0347 143.071 76.2666 144.019 76.2666C144.967 76.2666 145.733 77.0347 145.733 77.9811V102.516Z" fill="black"/>
</svg>
