<svg width="43" height="36" viewBox="0 0 43 36" fill="none" xmlns="http://www.w3.org/2000/svg">
<circle cx="14" cy="10" r="5.5" fill="white" stroke="black"/>
<path d="M12.5 19.5L11 16.5H17L15.5 19.5L19 31.5H10L12.5 19.5Z" fill="#D9D9D9" stroke="black" stroke-linejoin="bevel"/>
<path d="M9 17L1 19.5L2 24L6.5 23.5L7.5 35H21.5L22.5 23L26.5 24L28 19.5L19 17" stroke="black" stroke-linejoin="bevel"/>
<path d="M31.5 8.5H36.5V13.5H31.5V8.5ZM31.5 28.5H36.5V33.5H31.5V28.5ZM31.5 18.5H36.5V23.5H31.5V18.5Z" fill="#EEEBEB" stroke="#D0D0D0"/>
<path d="M31 8.1197L34.1481 11.3621L42.0316 3.24241" stroke="black" stroke-linecap="round" stroke-linejoin="bevel"/>
<path d="M31.1368 17.9719L34.2849 21.2143L42.1684 13.0946" stroke="black" stroke-linecap="round" stroke-linejoin="bevel"/>
<path d="M31.1368 28.3383L34.2849 31.5807L42.1684 23.461" stroke="black" stroke-linecap="round" stroke-linejoin="bevel"/>
</svg>
