<svg width="34" height="37" viewBox="0 0 34 37" fill="none" xmlns="http://www.w3.org/2000/svg">
<rect x="1.5" y="29.5" width="8" height="7" fill="white" stroke="black"/>
<rect x="13.5" y="22.5" width="8" height="14" fill="white" stroke="black"/>
<rect x="25.5" y="12.5" width="8" height="24" fill="white" stroke="black"/>
<path d="M33.495 2.07071C33.534 1.79735 33.3441 1.54408 33.0707 1.50503L28.6159 0.86863C28.3426 0.829578 28.0893 1.01953 28.0503 1.29289C28.0112 1.56626 28.2012 1.81953 28.4745 1.85858L32.4343 2.42427L31.8686 6.38406C31.8296 6.65743 32.0195 6.9107 32.2929 6.94975C32.5663 6.9888 32.8195 6.79885 32.8586 6.52548L33.495 2.07071ZM1.3 26.4L33.3 2.4L32.7 1.6L0.7 25.6L1.3 26.4Z" fill="black"/>
</svg>
